<svg width="98" height="39" viewBox="0 0 98 39" fill="none" xmlns="http://www.w3.org/2000/svg">
<path d="M12.938 0.569824L11.1118 9.86182H4.4248L3.10889 16.522H9.7959L8.5874 22.8867H1.90039L0.611328 29.6006H7.3252L5.47217 39H12.75L14.5762 29.6006H20.7261L18.9536 39H26.2852L28.0576 29.6006H34.7178L35.98 22.8867H29.293L30.4746 16.522H37.2153L38.4507 9.86182H31.7368L33.4824 0.569824H26.312L24.5396 9.86182H18.3628L20.1084 0.569824H12.938ZM22.1226 22.9673H15.7847L17.02 16.3877H23.3579L22.1226 22.9673ZM81.3926 19.7446C81.3926 8.94873 73.0674 0.489258 61.7612 0.489258C50.4819 0.489258 42.1567 8.94873 42.1567 19.7446C42.1567 30.5674 50.4819 39 61.7612 39C73.0674 39 81.3926 30.5674 81.3926 19.7446ZM73.1479 19.7446C73.1479 26.4048 68.6899 31.5879 61.7612 31.5879C54.8594 31.5879 50.4014 26.4048 50.4014 19.7446C50.4014 13.1113 54.8594 7.87451 61.7612 7.87451C68.6899 7.87451 73.1479 13.1113 73.1479 19.7446ZM84.105 0.462402V7.90137H89.7715V39H97.8013V0.462402H84.105Z" fill="#EFEFEF"/>
</svg>
