<svg width="116" height="40" viewBox="0 0 116 40" fill="none" xmlns="http://www.w3.org/2000/svg">
<path d="M12.938 0.569824L11.1118 9.86182H4.4248L3.10889 16.522H9.7959L8.5874 22.8867H1.90039L0.611328 29.6006H7.3252L5.47217 39H12.75L14.5762 29.6006H20.7261L18.9536 39H26.2852L28.0576 29.6006H34.7178L35.98 22.8867H29.293L30.4746 16.522H37.2153L38.4507 9.86182H31.7368L33.4824 0.569824H26.312L24.5396 9.86182H18.3628L20.1084 0.569824H12.938ZM22.1226 22.9673H15.7847L17.02 16.3877H23.3579L22.1226 22.9673ZM81.3926 19.7446C81.3926 8.94873 73.0674 0.489258 61.7612 0.489258C50.4819 0.489258 42.1567 8.94873 42.1567 19.7446C42.1567 30.5674 50.4819 39 61.7612 39C73.0674 39 81.3926 30.5674 81.3926 19.7446ZM73.1479 19.7446C73.1479 26.4048 68.6899 31.5879 61.7612 31.5879C54.8594 31.5879 50.4014 26.4048 50.4014 19.7446C50.4014 13.1113 54.8594 7.87451 61.7612 7.87451C68.6899 7.87451 73.1479 13.1113 73.1479 19.7446ZM86.4414 0.489258V7.87451H102.018L91.8931 15.9312L96.0825 21.6514C97.3716 20.9531 98.7949 20.604 100.326 20.604C103.871 20.604 107.496 22.457 107.496 26.1899C107.496 29.7886 104.085 31.5073 101.024 31.5073C97.8818 31.5073 94.7935 29.8154 94.5249 26.5659H86.4951C86.7368 34.6494 93.7461 39.0269 101.024 39.0269C108.517 39.0269 115.526 34.3271 115.526 26.6196C115.526 22.5376 113.458 18.9658 110.182 16.8442C108.033 15.4478 105.375 14.6958 102.474 14.8301L111.981 7.87451V0.489258H86.4414Z" fill="#EFEFEF"/>
</svg>
