<svg width="116" height="39" viewBox="0 0 116 39" fill="none" xmlns="http://www.w3.org/2000/svg">
<path d="M12.938 0.569824L11.1118 9.86182H4.4248L3.10889 16.522H9.7959L8.5874 22.8867H1.90039L0.611328 29.6006H7.3252L5.47217 39H12.75L14.5762 29.6006H20.7261L18.9536 39H26.2852L28.0576 29.6006H34.7178L35.98 22.8867H29.293L30.4746 16.522H37.2153L38.4507 9.86182H31.7368L33.4824 0.569824H26.312L24.5396 9.86182H18.3628L20.1084 0.569824H12.938ZM22.1226 22.9673H15.7847L17.02 16.3877H23.3579L22.1226 22.9673ZM81.3926 19.7446C81.3926 8.94873 73.0674 0.489258 61.7612 0.489258C50.4819 0.489258 42.1567 8.94873 42.1567 19.7446C42.1567 30.5674 50.4819 39 61.7612 39C73.0674 39 81.3926 30.5674 81.3926 19.7446ZM73.1479 19.7446C73.1479 26.4048 68.6899 31.5879 61.7612 31.5879C54.8594 31.5879 50.4014 26.4048 50.4014 19.7446C50.4014 13.1113 54.8594 7.87451 61.7612 7.87451C68.6899 7.87451 73.1479 13.1113 73.1479 19.7446ZM86.1997 26.5391C86.4414 34.6226 93.5312 39 100.782 39C108.275 39 115.338 34.2734 115.338 26.5659C115.338 21.5708 113.136 17.7305 109.269 15.5552C106.986 14.2661 104.112 13.5679 100.782 13.5679H95.7871V7.92822H112.679V0.489258H87.7305V20.5234H100.782C104.139 20.5234 107.308 22.7256 107.308 26.1362C107.308 29.708 103.844 31.4805 100.782 31.4805C97.6133 31.4805 94.6055 29.7349 94.2563 26.5391H86.1997Z" fill="#EFEFEF"/>
</svg>
