<svg xmlns="http://www.w3.org/2000/svg" xmlns:xlink="http://www.w3.org/1999/xlink" viewBox="0 0 1350.9 222.37"><defs><style>.cls-1{fill:url(#Безымянный_градиент_30);}.cls-2{font-size:197.32px;font-family:Gilroy-Black, Gilroy;font-weight:800;}.cls-3{letter-spacing:-0.02em;}.cls-4{letter-spacing:0em;}.cls-5,.cls-7{letter-spacing:0em;}.cls-6,.cls-7{fill:#fff;}</style><linearGradient id="Безымянный_градиент_30" x1="1315.41" y1="153.28" x2="1344.53" y2="182.4" gradientUnits="userSpaceOnUse"><stop offset="0" stop-color="#0c24ff"/><stop offset="0.59" stop-color="#d1006f"/><stop offset="0.69" stop-color="#cf006e"/><stop offset="0.76" stop-color="#c70069"/><stop offset="0.8" stop-color="#b90062"/><stop offset="0.85" stop-color="#a50058"/><stop offset="0.88" stop-color="#8c004a"/><stop offset="0.92" stop-color="#6d003a"/><stop offset="0.95" stop-color="#480026"/><stop offset="0.98" stop-color="#1e0010"/><stop offset="1"/></linearGradient></defs><g id="Слой_2" data-name="Слой 2"><g id="Слой_1-2" data-name="Слой 1"><rect x="831.44" y="33.85" width="463.28" height="157.92" rx="21.29"/><circle class="cls-1" cx="1330.11" cy="167.98" r="20.79"/><path d="M88.63,205.38c-2.95-.61-5.95-1.06-8.84-1.87a32.69,32.69,0,0,1-13-6.78,5.19,5.19,0,0,0-.75-.46l.16-.36c1.7-.41,3.41-.75,5.09-1.25,20.2-5.94,32.72-19.16,37.25-39.73a43.21,43.21,0,0,0,.13-17.33,2.07,2.07,0,0,1,.94-2.46,27.89,27.89,0,0,0,9.87-12.45c1.56,1.34,3.07,2.51,4.43,3.83,7.29,7.08,12.27,15.45,14,25.55a44.63,44.63,0,0,1-5.73,31.1C124.93,195.59,114,202.77,99.78,205c-.63.1-1.25.23-1.88.35Z"/><path d="M186.41,115.71c-.6,3.36-1,6.77-1.86,10.06a30.36,30.36,0,0,1-7,13,2.52,2.52,0,0,0-.29.71l-.29-.29c-.76-2.8-1.3-5.68-2.29-8.39-6.78-18.65-20-30.07-39.35-34.18a43.11,43.11,0,0,0-16.9-.08,2,2,0,0,1-2.31-1,27.56,27.56,0,0,0-11-9.17c-.35-.16-.71-.35-1.06-.53,0,0-.06-.08-.14-.2a43.4,43.4,0,0,1,11.25-10.91,44.41,44.41,0,0,1,28.59-8c18.92,1.32,36.4,14.35,41.1,34.2.7,3,1,6,1.53,9.08Z"/><path d="M120.73,28.5c-2.84.73-5.36,1.21-7.78,2C93.68,36.93,81.82,50.07,77.65,70a47.56,47.56,0,0,0,0,17.36,1.42,1.42,0,0,1-.37,1.2,29.51,29.51,0,0,0-10.39,12.64c0,.09-.14.14-.32.31C53.12,91,46.12,77.33,47.88,60.26c2-19.54,12.93-33,31.55-39.09C94,16.43,108.05,18.7,120.73,28.5Z"/><path d="M14.91,152.49c2.61,1.49,5.17,3.11,7.86,4.46a49.86,49.86,0,0,0,63-15.53,2.59,2.59,0,0,1,3-1.28A27.64,27.64,0,0,0,104,138.39c4.08,10-3,31.32-13.31,40.8-14.49,13.37-35.84,16-52.21,7.28C21.89,177.65,14.1,161.36,14.91,152.49Z"/><path d="M9.54,85.36A49.37,49.37,0,0,0,15.24,102c8.17,14.32,20.32,23.09,36.61,26a50.87,50.87,0,0,0,16.61,0,1.74,1.74,0,0,1,1.43.55A29,29,0,0,0,82,138.24a3.5,3.5,0,0,1,.54.37,45.62,45.62,0,0,1-21.4,16.33c-21.46,8-46.29-1.72-56.34-22A48,48,0,0,1,.09,108.48a38.63,38.63,0,0,1,5.1-18c1.13-1.89,2.58-3.6,3.88-5.39Z"/><path d="M133.53,190.77c2.07-4,4.19-7.49,5.75-11.21a49.79,49.79,0,0,0-17.21-60.13,2.05,2.05,0,0,1-1-2.43,27.71,27.71,0,0,0-1.13-14.27l-.55-1.59c17.07-2,31.79,2.29,42.56,15.89,11.88,15,14.13,31.84,5.7,49.17C160.85,180.17,149.44,188.64,133.53,190.77Z"/><path d="M81.93,86c-1.86-16.67,2.56-30.79,15.19-41.92,13.6-12,33.66-14.72,49.73-6.49,14.06,7.2,22.78,18.48,25.09,34.63-2.86-1.63-5.37-3.21-8-4.54a50.35,50.35,0,0,0-59.85,10.76c-1.48,1.59-2.73,3.42-4.15,5.08a2,2,0,0,1-1.4.72A29.34,29.34,0,0,0,81.93,86Z"/><path d="M53.11,33.86A53.94,53.94,0,0,0,45.6,48.25a50,50,0,0,0,18,56.46c1.19.87,1.74,1.59,1.43,3.23a26.66,26.66,0,0,0,1.52,14.37,5.79,5.79,0,0,1,.21.71c0,.09,0,.19-.1.4-17.87,2-33.15-3.07-43.9-17.93C11.86,90.35,10.6,73.86,19.18,57.16,26.67,42.57,41.7,33.92,53.11,33.86Z"/><circle cx="92.55" cy="111.67" r="17.3"/><text class="cls-2" transform="translate(213.57 167.72) scale(1.04 1)"><tspan class="cls-3">s</tspan><tspan x="90.17" y="0">t</tspan><tspan class="cls-4" x="167.92" y="0">u</tspan><tspan x="281.97" y="0">d</tspan><tspan class="cls-5" x="403.31" y="0">i</tspan><tspan x="454.81" y="0">o </tspan><tspan class="cls-6" x="614.64" y="0">a</tspan><tspan class="cls-7" x="735.98" y="0">m</tspan><tspan class="cls-6" x="903.9" y="0">a</tspan></text></g></g></svg>